<svg width="14" height="14" viewBox="0 0 14 14" fill="none" xmlns="http://www.w3.org/2000/svg">
<g id="Frame" clip-path="url(#clip0_201_371)">
<g id="Group">
<path id="Vector" d="M5.87767 6.41666C6.22767 6.41666 6.51117 6.67916 6.50475 6.99999C6.50475 7.32082 6.22825 7.58332 5.87767 7.58332C5.5335 7.58332 5.25 7.32082 5.25 6.99999C5.25 6.67916 5.52708 6.41666 5.87767 6.41666ZM8.12233 6.41666C8.47292 6.41666 8.75 6.67916 8.75 6.99999C8.75 7.32082 8.47292 7.58332 8.12233 7.58332C7.77817 7.58332 7.49525 7.32082 7.49525 6.99999C7.49525 6.67916 7.77175 6.41666 8.12233 6.41666ZM11.0198 1.16666C11.6982 1.16666 12.25 1.73016 12.25 2.42841V13.4167L10.9602 12.2529L10.234 11.5669L9.46575 10.8377L9.78425 11.9712H2.98025C2.30183 11.9712 1.75 11.4077 1.75 10.7094V2.42841C1.75 1.73016 2.30183 1.16666 2.98025 1.16666H11.0192H11.0198ZM8.70392 9.16591C10.0298 9.12332 10.5402 8.23491 10.5402 8.23491C10.5402 6.26266 9.67575 4.66374 9.67575 4.66374C8.81242 4.00282 7.98992 4.02091 7.98992 4.02091L7.90592 4.11891C8.92617 4.43741 9.39983 4.89707 9.39983 4.89707C8.84279 4.58323 8.22887 4.38335 7.59383 4.30907C7.19101 4.26358 6.78413 4.26749 6.38225 4.32074C6.34608 4.32074 6.31575 4.32716 6.28017 4.33299C6.07017 4.35166 5.55975 4.43099 4.91808 4.71916C4.69642 4.82299 4.564 4.89707 4.564 4.89707C4.564 4.89707 5.06217 4.41291 6.14192 4.09441L6.08183 4.02091C6.08183 4.02091 5.25992 4.00282 4.396 4.66432C4.396 4.66432 3.53208 6.26266 3.53208 8.23491C3.53208 8.23491 4.03608 9.12274 5.362 9.16591C5.362 9.16591 5.58367 8.89057 5.7645 8.65782C5.00208 8.42449 4.7145 7.93449 4.7145 7.93449C4.7145 7.93449 4.774 7.97766 4.88192 8.03891C4.88775 8.04474 4.89358 8.05116 4.90583 8.05699C4.92392 8.06982 4.942 8.07566 4.96008 8.08791C5.11 8.17366 5.25992 8.24074 5.39758 8.29616C5.64375 8.39416 5.93775 8.49216 6.28017 8.55982C6.7931 8.66037 7.32049 8.66235 7.83417 8.56566C8.13337 8.51225 8.42528 8.42396 8.70392 8.30257C8.91392 8.22266 9.14783 8.10599 9.394 7.94091C9.394 7.94091 9.09417 8.44316 8.30783 8.67007C8.48808 8.90282 8.7045 9.16591 8.7045 9.16591H8.70392Z" fill="white"/>
</g>
</g>
<defs>
<clipPath id="clip0_201_371">
<rect width="14" height="14" fill="white"/>
</clipPath>
</defs>
</svg>
