<svg width="14" height="14" viewBox="0 0 14 14" fill="none" xmlns="http://www.w3.org/2000/svg">
<g id="Frame" clip-path="url(#clip0_201_379)">
<g id="Group">
<path id="Vector" d="M6.99996 1.16666C3.77704 1.16666 1.16663 3.77707 1.16663 6.99999C1.16597 8.22457 1.55093 9.41826 2.26692 10.4117C2.9829 11.4052 3.99354 12.1479 5.15546 12.5347C5.44713 12.5854 5.55621 12.4104 5.55621 12.257C5.55621 12.1187 5.54863 11.6597 5.54863 11.1708C4.08329 11.4409 3.70413 10.8138 3.58746 10.4854C3.52154 10.3174 3.23746 9.79999 2.98954 9.66116C2.78538 9.55207 2.49371 9.28199 2.98196 9.27499C3.44163 9.26741 3.76946 9.69791 3.87913 9.87291C4.40413 10.7549 5.24296 10.507 5.57779 10.3542C5.62913 9.97499 5.78196 9.72007 5.94996 9.57424C4.65204 9.42841 3.29579 8.92499 3.29579 6.69374C3.29579 6.05907 3.52154 5.53466 3.89371 5.12574C3.83538 4.97991 3.63121 4.38199 3.95204 3.57991C3.95204 3.57991 4.44029 3.42707 5.55621 4.17841C6.03108 4.04661 6.52172 3.98027 7.01454 3.98124C7.51038 3.98124 8.00621 4.04657 8.47288 4.17782C9.58821 3.41949 10.077 3.58049 10.077 3.58049C10.3979 4.38257 10.1937 4.98049 10.1354 5.12632C10.507 5.53466 10.7333 6.05207 10.7333 6.69374C10.7333 8.93257 9.37004 9.42841 8.07213 9.57424C8.28329 9.75624 8.46588 10.1062 8.46588 10.6534C8.46588 11.4333 8.45829 12.0604 8.45829 12.2576C8.45829 12.4104 8.56796 12.5924 8.85963 12.5341C10.0176 12.1431 11.0237 11.3989 11.7366 10.4062C12.4494 9.41342 12.833 8.22214 12.8333 6.99999C12.8333 3.77707 10.2229 1.16666 6.99996 1.16666Z" fill="white"/>
</g>
</g>
<defs>
<clipPath id="clip0_201_379">
<rect width="14" height="14" fill="white"/>
</clipPath>
</defs>
</svg>
