<svg width="30" height="44" viewBox="0 0 30 44" fill="none" xmlns="http://www.w3.org/2000/svg">
<path d="M23.7252 13.7093C23.0493 12.7943 18.923 11.3877 18.3821 11.8098C18.3821 11.8098 18.9149 7.49746 18.5424 4.91559C18.1779 2.38529 19.6668 3.37103 20.3426 4.28482L20.3879 4.3457C21.0477 5.23313 23.0992 7.99217 23.8278 12.9466C23.9328 13.6613 23.8347 13.8568 23.7252 13.7093Z" fill="#CFFE25"/>
<path d="M11.2011 11.8803C10.9912 11.8795 9.01372 11.8714 7.5599 13.0052C7.35692 13.076 7.29003 12.9357 7.29003 12.9357C7.29003 12.9357 7.08706 7.94221 6.88409 6.11344C6.68111 4.28466 7.76287 4.91783 8.23687 5.48026C8.28361 5.53586 8.34346 5.60337 8.4143 5.68328C9.06002 6.41173 10.6187 8.17002 11.4833 11.318C11.6182 11.8096 11.3472 11.8804 11.2123 11.8804L11.2011 11.8803Z" fill="#CFFE25"/>
<path d="M7.45827 25.1388C7.45827 25.1388 8.66343 20.5195 11.3136 17.4723C12.5984 15.9949 13.3434 14.5882 11.5166 14.2369C9.68984 13.8855 6.37651 17.6126 7.18725 24.7874C7.18718 24.7867 7.18725 24.7874 7.18725 24.7874C7.19045 24.8148 7.26012 25.4127 7.45827 25.1388Z" fill="#CFFE25"/>
<path d="M9.24211 24.8966C9.24211 24.8966 10.5926 22.9276 12.4632 22.0569C13.3708 21.6348 13.899 20.6299 12.9372 20.1442C11.9754 19.6597 9.21674 21.1995 9.14062 24.6916C9.14062 24.6916 9.16138 24.8439 9.31015 24.7551L9.24211 24.8966Z" fill="#CFFE25"/>
<path d="M23.1848 25.4553C22.2575 27.2229 18.2534 28.4977 18.2534 28.4977L18.2384 28.5397C18.0666 28.7267 18.2465 28.8299 18.2465 28.8299C22.3729 29.9571 25.5513 27.1438 25.4163 25.4553C25.4148 25.4361 25.4136 25.4106 25.4121 25.3798C25.3977 25.0816 25.3593 24.2843 24.8074 23.8376C24.6113 23.6781 24.2089 23.6769 24.1316 23.8376C23.7625 24.6061 23.4251 25.0991 23.2695 25.3264C23.2258 25.3903 23.1964 25.4332 23.1848 25.4553Z" fill="#CFFE25"/>
<path d="M19.853 30.0111C19.853 30.0111 22.6024 30.51 23.7534 29.6657C23.8191 29.6177 24.1236 29.3851 24.7394 28.9006C24.8398 28.8215 25.2134 28.8299 25.2526 29.1501C25.3195 29.7005 25.1004 30.2665 25.0381 30.4056C24.5261 31.5497 21.7144 32.3279 19.7342 30.2245C19.7342 30.2245 19.6662 30.0974 19.8311 30.0327L19.853 30.0111Z" fill="#CFFE25"/>
<path d="M4.35282 21.5808C5.47611 22.7932 5.94894 24.7035 5.94894 24.7035L5.93626 24.5752C6.0216 24.6867 6.07465 24.5752 6.07465 24.5752C6.90154 21.853 5.30888 19.8683 4.49583 19.9655C3.68278 20.0638 3.80848 20.9932 4.35282 21.5808Z" fill="#CFFE25"/>
<path d="M11.5838 30.0615C11.4343 30.2795 11.3641 30.1946 11.3322 30.0322C11.2798 29.9465 11.292 29.7224 11.31 29.5571C11.3114 29.521 11.3128 29.499 11.3128 29.499C11.3128 29.499 11.3194 29.4435 11.3384 29.3426C11.3768 28.9272 12.0921 22.452 19.301 22.6168C20.0462 22.6336 21.8647 22.2139 22.2684 21.6967L22.2711 21.6923L22.2721 21.6984C22.2861 21.7909 22.419 22.9163 20.9183 24.7166C20.0395 25.7719 17.8748 26.6162 17.4689 26.6857C17.0629 26.7565 13.1338 27.8058 11.5838 30.0615Z" fill="#CFFE25"/>
<path fill-rule="evenodd" clip-rule="evenodd" d="M17.101 0.779278C17.5415 0.269704 18.1343 0 18.8182 0C18.9693 0 19.1261 0.0131268 19.2864 0.0405746C20.7418 0.278058 21.8732 0.852075 22.9538 1.90225C24.031 2.94885 25.0585 4.4716 26.2694 6.4371C27.7502 8.83819 28.9889 12.5615 29.5828 16.3971C30.1098 19.797 30.4004 25.0049 28.7974 30.5088C28.1308 32.8001 27.0906 34.8754 25.7055 36.6774C24.4461 38.3171 22.9065 39.7277 21.1293 40.8698C19.5125 41.9092 17.7307 42.71 15.8335 43.247C14.0702 43.747 12.2861 44 10.5308 44C10.284 44 10.0361 43.9952 9.79273 43.9845C6.70197 43.852 4.24551 42.8985 2.49139 41.1514C0.81685 39.483 0.273659 37.5689 0.099516 36.576C-0.309894 34.2513 0.663465 31.5817 0.861827 31.0709C0.954089 30.59 1.48344 27.6041 1.30468 23.586C1.12362 19.5333 2.31725 16.3052 5.05741 13.4363C5.10931 13.2477 5.25231 12.4362 5.05856 9.56496C4.95246 7.9885 4.79216 6.51587 4.76333 6.2569C4.67683 5.83803 4.29279 3.67323 5.23617 2.37483C5.6525 1.80201 6.26373 1.47502 7.00528 1.42967C7.07563 1.42609 7.14713 1.4237 7.21863 1.4237C8.56334 1.4237 10.0061 2.16838 11.39 3.57657C12.7174 4.92867 13.8741 6.77244 14.7345 8.90979C14.7795 9.02197 14.8233 9.12937 14.8659 9.2332C15.0307 9.63506 15.1832 10.0068 15.2834 10.3836L16.251 10.3311V4.76279C16.2072 4.31646 16.0388 2.01204 17.101 0.779278ZM19.1596 0.868782C19.0396 0.849688 18.9254 0.84014 18.8182 0.84014C16.6327 0.84014 17.0629 4.71983 17.0629 4.71983V10.4588C17.0629 11.1104 16.6754 11.1605 16.5566 11.1605C16.5347 11.1605 16.522 11.1593 16.522 11.1593L14.5938 11.2643C14.5938 10.7214 14.3925 10.2307 14.1207 9.56778C14.077 9.4614 14.0316 9.35058 13.9849 9.23439C12.2965 5.04085 9.48941 2.26504 7.21748 2.26504C7.16212 2.26504 7.10676 2.26623 7.05141 2.26981C4.75179 2.41063 5.56369 6.11966 5.56369 6.11966C5.56369 6.11966 6.3756 13.2585 5.69863 13.959C3.77992 15.9455 2.20584 18.5088 2.10303 22.4061C2.57309 22.7392 4.20909 24.1656 4.07556 27.8116C4.10731 28.5215 3.9058 29.4631 3.9058 29.4631C3.9058 29.4631 3.77087 30.0963 3.70282 29.5339C3.46386 27.5498 2.53003 26.8216 2.12887 26.5966C2.02866 29.4696 1.64028 31.3167 1.64028 31.3167C1.64028 31.3167 0.490474 34.1164 0.896424 36.4256C1.02152 37.1372 1.29436 38.0216 1.80399 38.913C2.35754 39.1532 3.0827 39.3465 3.53506 38.9944C4.34696 38.3624 4.21202 37.3059 4.21202 37.3059C4.21202 37.3059 2.58822 36.0395 2.52133 35.5479C2.45329 35.055 2.65627 34.6341 3.19831 34.4926C3.73919 34.3522 6.10684 34.4218 6.91874 34.9854C7.73064 35.5491 6.44475 36.3921 6.44475 36.3921L5.16001 37.1656C5.16001 37.1656 4.61913 37.4474 5.09197 38.5015C5.56481 39.5556 7.93247 40.7524 10.5031 40.2595C10.5031 40.2595 11.5625 40.1343 12.8914 39.6318C13.9454 38.8347 15.3606 37.614 16.3778 36.1654C17.2635 34.9051 18.6174 34.5621 19.0245 35.6474C19.471 36.8384 17.8328 39.3138 13.8468 40.3841C13.5711 40.5017 13.3204 40.5917 13.1083 40.6468C11.4845 41.069 7.56226 41.9827 4.51764 39.1694C4.51764 39.1694 3.82278 40.0416 2.4723 39.8979C3.77947 41.5359 6.03478 42.9823 9.82502 43.1443C10.0568 43.1539 10.2921 43.1587 10.5297 43.1587C17.0053 43.1587 25.3457 39.4472 28.0201 30.2654C30.7937 20.7469 28.0881 10.9481 25.5856 6.8882C23.083 2.82832 21.7302 1.28885 19.1596 0.868782Z" fill="#CFFE25"/>
</svg>
