<svg width="40" height="32" viewBox="0 0 40 32" fill="none" xmlns="http://www.w3.org/2000/svg">
<g id="Frame 55">
<path id="Rectangle" d="M0.25 16C0.25 7.30152 7.30152 0.25 16 0.25H24C32.6985 0.25 39.75 7.30152 39.75 16C39.75 24.6985 32.6985 31.75 24 31.75H16C7.30151 31.75 0.25 24.6985 0.25 16Z" fill="#3F444E" stroke="#718096" stroke-width="0.5"/>
<g id="layer1">
<path id="path1009" d="M13.0317 10L18.0509 16.7111L13 22.1675H14.1367L18.5588 17.3903L22.1316 22.1675H26L20.6984 15.0789L25.3997 10H24.263L20.1905 14.3997L16.9001 10H13.0317ZM14.7034 10.8373H16.4805L24.3281 21.33H22.5509L14.7034 10.8373Z" fill="white"/>
</g>
</g>
</svg>
